<?xml version="1.0" encoding="utf-8"?>
<svg version="1.1" id="Logotype" xmlns="http://www.w3.org/2000/svg" xmlns:xlink="http://www.w3.org/1999/xlink" x="0px" y="0px" width="50" height="50" viewBox="0 0 100 100" enable-background="new 0 0 100 100" xml:space="preserve">
	<g id="Logotype">
		<path fill="#679F42" stroke="#679F42" stroke-width="3" stroke-miterlimit="10" d="M50.1,97.3c-1.1,0-2.2-0.2-3-0.7L11.2,75.9 c-1.6-0.9-3-3.3-3-5.1V29.2c0-1.8,1.4-4.2,3-5.1L47.1,3.3c0.8-0.4,1.8-0.7,3-0.7s2.2,0.2,3,0.7L89,24.1c1.6,0.9,3,3.3,3,5.1v41.5 c0,1.8-1.4,4.2-3,5.1L53.1,96.7C52.3,97.1,51.2,97.3,50.1,97.3z" />
		<g id="Wrench">
			<line fill="none" stroke="#DCECC8" stroke-width="3" stroke-linecap="round" stroke-linejoin="round" stroke-miterlimit="10" x1="51.5" y1="47.8" x2="29.6" y2="69.6" />
			<path fill="none" stroke="#DCECC8" stroke-width="3" stroke-linecap="round" stroke-linejoin="round" stroke-miterlimit="10" d="M70.6,39.8c0,6.2-5,11.2-11.2,11.2s-11.2-5-11.2-11.2s5-11.2,11.2-11.2" />
		</g>
	</g>
</svg>
